<svg xmlns="http://www.w3.org/2000/svg"  viewBox="0 0 100 100" width="64px" height="64px" fill="#3b82f6"><path d="M 60.130859 21 C 58.472683 21 56.994037 21.910397 56.316406 23.40625 A 1.0001 1.0001 0 0 0 56.306641 23.429688 L 35.455078 72.677734 L 35.501953 72.582031 C 35.172824 73.17453 35 73.840835 35 74.517578 C 35 75.66896 35.48249 76.764074 36.320312 77.625 C 37.192987 78.520308 38.385638 79 39.664062 79 C 40.474038 79 41.267962 78.811135 41.986328 78.441406 A 1.0001 1.0001 0 0 0 41.990234 78.439453 C 42.795173 78.019817 43.444255 77.357411 43.820312 76.529297 A 1.0001 1.0001 0 0 0 43.830078 76.505859 L 64.625 27.425781 C 64.880004 26.845746 65 26.20898 65 25.550781 C 65 24.197292 64.371595 22.940639 63.291016 22.113281 A 1.0001 1.0001 0 0 0 63.289062 22.111328 C 62.350423 21.396977 61.259773 21 60.130859 21 z M 60.130859 23 C 60.806527 23 61.432321 23.213747 62.074219 23.701172 C 62.71764 24.193814 63 24.76427 63 25.550781 C 63 25.968583 62.92592 26.323129 62.794922 26.621094 A 1.0001 1.0001 0 0 0 62.789062 26.634766 L 41.996094 75.705078 C 41.799152 76.136168 41.526061 76.423337 41.070312 76.662109 C 40.630679 76.888381 40.170088 77 39.664062 77 C 38.844487 77 38.269233 76.757208 37.753906 76.228516 C 37.214868 75.674026 37 75.147594 37 74.517578 C 37 74.168321 37.07917 73.86023 37.25 73.552734 A 1.0001 1.0001 0 0 0 37.296875 73.457031 L 58.138672 24.232422 C 58.531041 23.366275 59.107036 23 60.130859 23 z M 29.154297 33 C 28.362431 33 27.610506 33.195007 27.019531 33.662109 C 27.018431 33.66301 27.016725 33.663162 27.015625 33.664062 L 11.132812 45.966797 L 11.158203 45.949219 C 10.459503 46.456262 9.902076 47.108255 9.5332031 47.867188 A 1.0001 1.0001 0 0 0 9.53125 47.873047 C 9.1931928 48.577427 9 49.303681 9 50.029297 C 9 50.757625 9.1915484 51.485963 9.53125 52.191406 A 1.0001 1.0001 0 0 0 9.5332031 52.195312 C 9.9173159 52.986207 10.492622 53.635128 11.189453 54.070312 L 11.107422 54.013672 L 27.005859 66.328125 C 27.006959 66.32903 27.008666 66.329178 27.009766 66.330078 C 27.605025 66.800646 28.362424 67 29.154297 67 C 30.323938 67 31.446139 66.500854 32.394531 65.650391 L 32.396484 65.648438 C 33.378895 64.767122 33.958307 63.535234 33.996094 62.226562 C 34.046837 60.433075 33.164529 59.254371 32.333984 58.703125 L 32.332031 58.701172 L 21.244141 50.003906 L 32.304688 41.375 L 32.224609 41.431641 C 33.02627 40.922239 34 39.778222 34 38.001953 C 34 36.586271 33.434563 35.281406 32.396484 34.351562 C 31.445644 33.500135 30.324106 33 29.154297 33 z M 70.845703 33 C 69.675894 33 68.554659 33.499862 67.603516 34.351562 A 1.0001 1.0001 0 0 0 67.601562 34.351562 C 66.564755 35.28141 66 36.586271 66 38.001953 C 66 39.778222 66.93934 40.901844 67.701172 41.378906 L 67.617188 41.320312 L 78.753906 50.003906 L 67.664062 58.703125 C 66.833437 59.254292 65.951199 60.432876 66.001953 62.226562 C 66.039763 63.536159 66.61984 64.768947 67.603516 65.650391 C 68.553079 66.501605 69.675199 67 70.845703 67 C 71.639096 67 72.394362 66.803749 72.986328 66.333984 L 88.816406 54.068359 L 88.738281 54.121094 C 89.485873 53.647619 90.082748 52.984687 90.466797 52.191406 C 90.807131 51.487037 91 50.757625 91 50.029297 C 91 49.303681 90.807337 48.575809 90.46875 47.869141 A 1.0001 1.0001 0 0 0 90.466797 47.865234 C 90.099867 47.10891 89.549133 46.462267 88.873047 45.970703 L 72.994141 33.671875 L 72.990234 33.669922 C 72.395024 33.199353 71.637576 33 70.845703 33 z M 29.154297 35 C 29.776487 35 30.38734 35.237226 31.0625 35.841797 C 31.712421 36.423954 32 37.071636 32 38.001953 C 32 39.121684 31.546633 39.491636 31.152344 39.742188 A 1.0001 1.0001 0 0 0 31.074219 39.798828 L 19.007812 49.212891 A 1.0001 1.0001 0 0 0 19.003906 50.789062 L 31.099609 60.275391 A 1.0001 1.0001 0 0 0 31.197266 60.34375 C 31.590022 60.582546 32.033312 60.923619 31.998047 62.169922 C 31.975857 62.938325 31.654871 63.6276 31.060547 64.160156 C 30.38938 64.762544 29.777793 65 29.154297 65 C 28.683689 65 28.416284 64.89321 28.248047 64.759766 A 1.0001 1.0001 0 0 0 28.240234 64.753906 L 12.332031 52.431641 A 1.0001 1.0001 0 0 0 12.248047 52.375 C 11.90193 52.158842 11.559894 51.787352 11.333984 51.324219 L 11.333984 51.322266 C 11.333984 51.322266 11.332031 51.320312 11.332031 51.320312 C 11.099385 50.835745 11 50.403769 11 50.029297 C 11 49.660099 11.09969 49.227815 11.332031 48.742188 L 11.333984 48.740234 C 11.333984 48.740234 11.333984 48.738281 11.333984 48.738281 C 11.557054 48.28087 11.879977 47.894459 12.332031 47.566406 A 1.0001 1.0001 0 0 0 12.357422 47.548828 L 28.25 35.238281 A 1.0001 1.0001 0 0 0 28.257812 35.232422 C 28.410338 35.111518 28.683689 35 29.154297 35 z M 70.845703 35 C 71.316311 35 71.583716 35.10679 71.751953 35.240234 A 1.0001 1.0001 0 0 0 71.759766 35.246094 L 87.667969 47.568359 A 1.0001 1.0001 0 0 0 87.693359 47.585938 C 88.115213 47.891973 88.447714 48.284287 88.667969 48.738281 C 88.901777 49.227633 89 49.660095 89 50.029297 C 89 50.404968 88.899686 50.836687 88.666016 51.320312 C 88.440064 51.787033 88.120377 52.145116 87.667969 52.431641 A 1.0001 1.0001 0 0 0 87.589844 52.486328 L 71.751953 64.759766 A 1.0001 1.0001 0 0 0 71.742188 64.767578 C 71.588189 64.889826 71.316311 65 70.845703 65 C 70.222207 65 69.611883 64.762939 68.939453 64.160156 A 1.0001 1.0001 0 0 0 68.9375 64.160156 C 68.343176 63.6276 68.02414 62.938325 68.001953 62.169922 C 67.966693 60.923619 68.408024 60.582546 68.800781 60.34375 A 1.0001 1.0001 0 0 0 68.898438 60.275391 L 80.994141 50.789062 A 1.0001 1.0001 0 0 0 80.992188 49.212891 L 68.847656 39.744141 A 1.0001 1.0001 0 0 0 68.763672 39.683594 C 68.487591 39.51066 68 39.121684 68 38.001953 C 68 37.072247 68.289254 36.423655 68.9375 35.841797 C 69.612356 35.237498 70.223513 35 70.845703 35 z M 28.505859 36.851562 A 0.50005 0.50005 0 0 0 28.195312 36.958984 L 26.794922 38.035156 A 0.50005 0.50005 0 1 0 27.404297 38.828125 L 28.804688 37.751953 A 0.50005 0.50005 0 0 0 28.505859 36.851562 z M 25.382812 39.25 A 0.50005 0.50005 0 0 0 25.072266 39.357422 L 17.423828 45.232422 A 0.50005 0.50005 0 1 0 18.033203 46.025391 L 25.681641 40.150391 A 0.50005 0.50005 0 0 0 25.382812 39.25 z M 82.277344 53.867188 A 0.50005 0.50005 0 0 0 81.966797 53.974609 L 81.007812 54.710938 A 0.50005 0.50005 0 1 0 81.617188 55.503906 L 82.576172 54.767578 A 0.50005 0.50005 0 0 0 82.277344 53.867188 z M 79.505859 55.996094 A 0.50005 0.50005 0 0 0 79.195312 56.103516 L 71.195312 62.248047 A 0.50005 0.50005 0 1 0 71.804688 63.041016 L 79.804688 56.896484 A 0.50005 0.50005 0 0 0 79.505859 55.996094 z"/></svg>
