<svg xmlns="http://www.w3.org/2000/svg"  viewBox="0 0 64 64" width="64px" height="64px" fill="#3b82f6"><path d="M 3 6 C 1.347656 6 0 7.347656 0 9 L 0 45 C 0 46.652344 1.347656 48 3 48 L 26 48 L 26 52 L 23.65625 52 C 22.320313 52 21.066406 52.519531 20.121094 53.464844 L 17.292969 56.292969 C 17.007813 56.578125 16.921875 57.007813 17.078125 57.382813 C 17.230469 57.753906 17.597656 58 18 58 L 46 58 C 46.402344 58 46.769531 57.753906 46.921875 57.382813 C 47.078125 57.007813 46.992188 56.578125 46.707031 56.292969 L 43.878906 53.464844 C 42.933594 52.519531 41.679688 52 40.34375 52 L 38 52 L 38 48 L 61 48 C 62.652344 48 64 46.652344 64 45 L 64 9 C 64 7.347656 62.652344 6 61 6 Z M 3 8 L 61 8 C 61.550781 8 62 8.449219 62 9 L 62 45 C 62 45.550781 61.550781 46 61 46 L 3 46 C 2.449219 46 2 45.550781 2 45 L 2 9 C 2 8.449219 2.449219 8 3 8 Z M 9 12 C 7.347656 12 6 13.347656 6 15 L 6 35 C 6 36.652344 7.347656 38 9 38 L 19 38 C 20.652344 38 22 36.652344 22 35 L 22 15 C 22 13.347656 20.652344 12 19 12 Z M 29 12 C 27.347656 12 26 13.347656 26 15 L 26 35 C 26 36.652344 27.347656 38 29 38 L 55 38 C 56.652344 38 58 36.652344 58 35 L 58 15 C 58 13.347656 56.652344 12 55 12 Z M 9 14 L 19 14 C 19.550781 14 20 14.449219 20 15 L 20 32 L 8 32 L 8 15 C 8 14.449219 8.449219 14 9 14 Z M 29 14 L 52 14 L 52 20 C 52 20.554688 52.449219 21 53 21 C 53.550781 21 54 20.554688 54 20 L 54 14 L 55 14 C 55.550781 14 56 14.449219 56 15 L 56 35 C 56 35.550781 55.550781 36 55 36 L 54 36 L 54 30 C 54 29.445313 53.550781 29 53 29 C 52.449219 29 52 29.445313 52 30 L 52 36 L 29 36 C 28.449219 36 28 35.550781 28 35 L 28 15 C 28 14.449219 28.449219 14 29 14 Z M 13 15 C 12.449219 15 12 15.445313 12 16 C 12 16.554688 12.449219 17 13 17 L 15 17 C 15.550781 17 16 16.554688 16 16 C 16 15.445313 15.550781 15 15 15 Z M 30 23 C 29.449219 23 29 23.445313 29 24 L 29 26 C 29 26.554688 29.449219 27 30 27 C 30.550781 27 31 26.554688 31 26 L 31 24 C 31 23.445313 30.550781 23 30 23 Z M 53 23 C 52.449219 23 52 23.445313 52 24 L 52 26 C 52 26.554688 52.449219 27 53 27 C 53.550781 27 54 26.554688 54 26 L 54 24 C 54 23.445313 53.550781 23 53 23 Z M 8 34 L 20 34 L 20 35 C 20 35.550781 19.550781 36 19 36 L 9 36 C 8.449219 36 8 35.550781 8 35 Z M 7 40 C 6.449219 40 6 40.445313 6 41 L 6 43 C 6 43.554688 6.449219 44 7 44 C 7.550781 44 8 43.554688 8 43 L 8 41 C 8 40.445313 7.550781 40 7 40 Z M 12 40 C 11.449219 40 11 40.445313 11 41 L 11 43 C 11 43.554688 11.449219 44 12 44 C 12.550781 44 13 43.554688 13 43 L 13 41 C 13 40.445313 12.550781 40 12 40 Z M 17 40 C 16.449219 40 16 40.445313 16 41 L 16 43 C 16 43.554688 16.449219 44 17 44 C 17.550781 44 18 43.554688 18 43 L 18 41 C 18 40.445313 17.550781 40 17 40 Z M 22 40 C 21.449219 40 21 40.445313 21 41 L 21 43 C 21 43.554688 21.449219 44 22 44 C 22.550781 44 23 43.554688 23 43 L 23 41 C 23 40.445313 22.550781 40 22 40 Z M 27 40 C 26.449219 40 26 40.445313 26 41 L 26 43 C 26 43.554688 26.449219 44 27 44 C 27.550781 44 28 43.554688 28 43 L 28 41 C 28 40.445313 27.550781 40 27 40 Z M 32 40 C 31.449219 40 31 40.445313 31 41 L 31 43 C 31 43.554688 31.449219 44 32 44 C 32.550781 44 33 43.554688 33 43 L 33 41 C 33 40.445313 32.550781 40 32 40 Z M 37 40 C 36.449219 40 36 40.445313 36 41 L 36 43 C 36 43.554688 36.449219 44 37 44 C 37.550781 44 38 43.554688 38 43 L 38 41 C 38 40.445313 37.550781 40 37 40 Z M 42 40 C 41.449219 40 41 40.445313 41 41 L 41 43 C 41 43.554688 41.449219 44 42 44 C 42.550781 44 43 43.554688 43 43 L 43 41 C 43 40.445313 42.550781 40 42 40 Z M 47 40 C 46.449219 40 46 40.445313 46 41 L 46 43 C 46 43.554688 46.449219 44 47 44 C 47.550781 44 48 43.554688 48 43 L 48 41 C 48 40.445313 47.550781 40 47 40 Z M 52 40 C 51.449219 40 51 40.445313 51 41 L 51 43 C 51 43.554688 51.449219 44 52 44 C 52.550781 44 53 43.554688 53 43 L 53 41 C 53 40.445313 52.550781 40 52 40 Z M 57 40 C 56.449219 40 56 40.445313 56 41 L 56 43 C 56 43.554688 56.449219 44 57 44 C 57.550781 44 58 43.554688 58 43 L 58 41 C 58 40.445313 57.550781 40 57 40 Z M 28 48 L 36 48 L 36 52 L 28 52 Z M 23.65625 54 L 40.34375 54 C 41.132813 54 41.90625 54.320313 42.464844 54.878906 L 43.585938 56 L 20.414063 56 L 21.535156 54.878906 C 22.09375 54.320313 22.867188 54 23.65625 54 Z"/></svg>
