<svg xmlns="http://www.w3.org/2000/svg"  viewBox="0 0 128 128" width="40px" height="40px" fill="#3b82f6"><path d="M69 112H19c-7.2 0-13-5.8-13-13V71c0-1.7 1.3-3 3-3s3 1.3 3 3v28c0 3.9 3.1 7 7 7h50c1.7 0 3 1.3 3 3S70.7 112 69 112zM99 26H19c-7.2 0-13 5.8-13 13v17c0 1.1.6 2 1.5 2.6C23.4 68.1 41.2 72.9 59 72.9c16.1 0 32.3-3.9 47-11.8V73c0 1.7 1.3 3 3 3s3-1.3 3-3V56 39C112 31.8 106.2 26 99 26zM12 54.3V39c0-3.9 3.1-7 7-7h80c3.9 0 7 3.1 7 7v15.3C76.9 71.1 41.1 71.1 12 54.3zM77 22c-1.7 0-3-1.3-3-3 0-3.9-3.1-7-7-7H51c-3.9 0-7 3.1-7 7 0 1.7-1.3 3-3 3s-3-1.3-3-3c0-7.2 5.8-13 13-13h16c7.2 0 13 5.8 13 13C80 20.7 78.7 22 77 22zM126.9 107.5l-8.7-15c-.5-.9-1.5-1.5-2.6-1.5H98.3c-1.1 0-2.1.6-2.6 1.5l-8.7 15c-.5.9-.5 2.1 0 3l8.7 15c.5.9 1.5 1.5 2.6 1.5h17.3c1.1 0 2.1-.6 2.6-1.5l8.7-15C127.5 109.6 127.5 108.4 126.9 107.5zM107 117c-4.4 0-8-3.6-8-8s3.6-8 8-8 8 3.6 8 8S111.4 117 107 117z"/></svg>
