<svg xmlns="http://www.w3.org/2000/svg"  viewBox="0 0 60 60" width="64px" height="64px" fill="#3b82f6"><path d="M 27.330078 -0.001953125 C 20.979437 -0.049121094 17.980219 5.56975 17.136719 7.5 A 1.634 1.634 0 0 0 19.441406 9.5703125 C 20.795406 8.8133125 24.274078 7.1382969 27.330078 7.9042969 A 6.118 6.118 0 0 1 29.736328 9.015625 A 4.825 4.825 0 0 1 30.609375 9.9238281 A 0.973 0.973 0 0 1 30.744141 10.724609 L 25.261719 32.4375 A 2 2 0 0 0 23.861328 33.869141 L 18.146484 56.519531 A 2.011 2.011 0 0 0 19.589844 58.960938 L 23.478516 59.941406 A 2.028 2.028 0 0 0 23.960938 60 A 2 2 0 0 0 24.988281 59.714844 A 1.974 1.974 0 0 0 25.894531 58.484375 L 31.623047 35.830078 L 31.623047 35.818359 A 1.993 1.993 0 0 0 31.068359 33.908203 L 36.5 12.429688 A 1.714 1.714 0 0 1 37.300781 11.365234 A 3.11 3.11 0 0 1 39.640625 11.017578 L 41.875 11.583984 A 1.968 1.968 0 0 0 42.085938 13.082031 A 2 2 0 0 0 43.320312 14.019531 L 46.220703 14.746094 A 1.992 1.992 0 0 0 48.65625 13.304688 L 50.125 7.4863281 A 1.978 1.978 0 0 0 49.908203 5.9707031 A 2 2 0 0 0 48.679688 5.046875 L 45.779297 4.3183594 A 1.992 1.992 0 0 0 43.345703 5.7558594 L 43.345703 5.7617188 L 40.828125 5.1269531 A 2.36 2.36 0 0 1 39.400391 4.0996094 A 4.613 4.613 0 0 0 36.648438 2 L 30.259766 0.39257812 C 29.212266 0.12732813 28.237313 0.0047851563 27.330078 -0.001953125 z M 27.703125 2.015625 C 28.350943 2.0459883 29.039734 2.1467813 29.771484 2.3320312 L 36.160156 3.9433594 A 2.7 2.7 0 0 1 37.707031 5.1679688 A 4.343 4.343 0 0 0 40.339844 7.0683594 L 43.818359 7.9472656 A 1 1 0 0 0 45.033203 7.2285156 L 45.28125 6.2578125 L 48.181641 6.9941406 L 46.714844 12.814453 L 43.814453 12.070312 L 44.054688 11.101562 A 1 1 0 0 0 43.328125 9.8925781 L 40.125 9.0761719 A 5.135 5.135 0 0 0 36.275391 9.6464844 A 3.7 3.7 0 0 0 34.564453 11.935547 L 29.199219 33.148438 L 27.269531 32.660156 L 32.6875 11.207031 A 2.974 2.974 0 0 0 32.207031 8.7226562 A 6.856 6.856 0 0 0 30.992188 7.4570312 A 8.055 8.055 0 0 0 27.818359 5.9667969 C 24.739359 5.1887969 21.527313 6.2975 19.445312 7.3125 C 20.641438 5.06375 23.168396 1.803082 27.703125 2.015625 z M 14.957031 16.964844 A 3 3 0 0 0 12.878906 17.878906 L 0.87890625 29.878906 A 3 3 0 0 0 0.87890625 34.121094 L 12.878906 46.121094 A 3 3 0 1 0 17.121094 41.878906 L 7.2421875 32 L 17.121094 22.121094 A 3 3 0 0 0 14.957031 16.964844 z M 44.941406 17.039062 A 3 3 0 0 0 42.878906 22.121094 L 52.757812 32 L 42.878906 41.878906 A 3 3 0 0 0 42.878906 46.121094 A 3 3 0 0 0 47.121094 46.121094 L 59.121094 34.121094 A 3 3 0 0 0 59.121094 29.878906 L 47.121094 17.878906 A 3 3 0 0 0 44.941406 17.039062 z M 14.919922 19.013672 A 1 1 0 0 1 15.707031 20.707031 L 5.1210938 31.292969 A 1 1 0 0 0 5.1210938 32.707031 L 15.707031 43.292969 A 1 1 0 0 1 15.707031 44.707031 A 1.025 1.025 0 0 1 14.292969 44.707031 L 2.2929688 32.707031 A 1 1 0 0 1 2.2929688 31.292969 L 14.292969 19.292969 A 1 1 0 0 1 14.919922 19.013672 z M 44.972656 19.013672 A 1 1 0 0 1 45.707031 19.292969 L 57.707031 31.292969 A 1 1 0 0 1 57.707031 32.707031 L 45.707031 44.707031 A 1.025 1.025 0 0 1 44.292969 44.707031 A 1 1 0 0 1 44.292969 43.292969 L 54.878906 32.707031 A 1 1 0 0 0 54.878906 31.292969 L 44.292969 20.707031 A 1 1 0 0 1 44.972656 19.013672 z M 25.810547 34.353516 L 29.673828 35.332031 C 29.680828 35.332031 29.685594 35.332609 29.683594 35.349609 L 23.960938 58 L 20.083984 57.013672 L 25.810547 34.353516 z"/></svg>
