<svg xmlns="http://www.w3.org/2000/svg"  viewBox="0 0 24 24" width="28px" height="28px"><path d="M 12 0 C 11.872 0 11.743984 0.048984375 11.646484 0.14648438 L 10.009766 1.7832031 L 10.009766 1.7207031 C 10.009766 1.5837031 9.9544688 1.453375 9.8554688 1.359375 L 9.6269531 1.1386719 C 9.5339531 1.0496719 9.4082969 1 9.2792969 1 L 1.6503906 1 C 1.5133906 1 1.3801562 1.0572031 1.2851562 1.1582031 L 1.1367188 1.3183594 C 1.0497187 1.4103594 1 1.5331562 1 1.6601562 L 1 2.890625 C 1 3.030625 1.0591094 3.1638125 1.1621094 3.2578125 L 1.2734375 3.359375 C 1.3654375 3.443375 1.484375 3.4902344 1.609375 3.4902344 L 2.5 3.4902344 L 2.5 9.2929688 L 0.14648438 11.646484 C -0.048515625 11.841484 -0.048515625 12.158516 0.14648438 12.353516 L 2.5 14.707031 L 2.5 21.339844 C 2.5 21.519844 2.5959531 21.685391 2.7519531 21.775391 L 3.03125 21.935547 C 3.10625 21.978547 3.1922969 22 3.2792969 22 L 5 22 C 5.133 22 5.2614687 21.947516 5.3554688 21.853516 L 7.4882812 19.695312 L 11.646484 23.853516 C 11.744484 23.950516 11.872 24 12 24 C 12.128 24 12.256516 23.950516 12.353516 23.853516 L 13.523438 22.683594 C 13.718438 22.488594 13.718438 22.171563 13.523438 21.976562 C 13.328437 21.781562 13.011406 21.781562 12.816406 21.976562 L 12 22.792969 L 10.707031 21.5 L 11.5 21.5 C 11.776 21.5 12 21.276 12 21 C 12 20.724 11.776 20.5 11.5 20.5 L 11.193359 20.5 L 12.474609 16.658203 C 12.525609 16.506203 12.499297 16.337031 12.404297 16.207031 C 12.311297 16.076031 12.161 16 12 16 L 11.5 16 C 11.224 16 11 16.224 11 16.5 C 11 16.712 11.132359 16.893797 11.318359 16.966797 L 10.03125 20.824219 L 8.1914062 18.984375 L 10.357422 16.791016 C 10.376722 16.771416 10.384991 16.746402 10.400391 16.724609 C 10.421258 16.69541 10.444677 16.668231 10.458984 16.634766 C 10.470592 16.60724 10.472048 16.577662 10.478516 16.548828 C 10.485391 16.519205 10.498592 16.492378 10.5 16.460938 C 10.512 16.158937 10.658062 15.8835 10.914062 15.6875 C 11.093062 15.5495 11.159266 15.308609 11.072266 15.099609 C 11.024266 14.983609 11 14.856703 11 14.720703 C 11 14.168703 11.448 13.720703 12 13.720703 L 12.5 13.720703 C 12.63 13.720703 12.757422 13.745969 12.857422 13.792969 C 12.862489 13.795359 12.867938 13.794669 12.873047 13.796875 C 12.905245 13.810755 12.938721 13.813522 12.972656 13.820312 C 13.003077 13.826437 13.032 13.837483 13.0625 13.837891 C 13.094441 13.838339 13.124715 13.82984 13.15625 13.824219 C 13.187388 13.818649 13.218564 13.815953 13.248047 13.804688 C 13.273132 13.795069 13.294795 13.777464 13.318359 13.763672 C 13.35183 13.744195 13.385658 13.72638 13.414062 13.699219 C 13.417555 13.695887 13.422364 13.694859 13.425781 13.691406 L 18.923828 8.1308594 L 22.792969 12 L 19.646484 15.146484 C 19.451484 15.341484 19.451484 15.658516 19.646484 15.853516 C 19.744484 15.950516 19.872 16 20 16 C 20.128 16 20.256516 15.951516 20.353516 15.853516 L 23.853516 12.353516 C 24.048516 12.158516 24.048516 11.841484 23.853516 11.646484 L 19.626953 7.4199219 L 23.855469 3.1425781 C 23.948469 3.0485781 24 2.9210625 24 2.7890625 L 24 1.6699219 C 24 1.5369219 23.946516 1.4104063 23.853516 1.3164062 L 23.714844 1.1757812 C 23.620844 1.0827813 23.492375 1.0292969 23.359375 1.0292969 L 15.630859 1.0292969 C 15.504859 1.0292969 15.382062 1.0771094 15.289062 1.1621094 L 15.160156 1.2832031 C 15.059156 1.3782031 15 1.5103906 15 1.6503906 L 15 2.7929688 L 12.353516 0.14648438 C 12.256016 0.048984375 12.128 0 12 0 z M 12 1.2070312 L 15.408203 4.6171875 L 9 10.927734 L 9 4.2070312 L 12 1.2070312 z M 2 2 L 9.0097656 2 L 9.0097656 2.5605469 L 8.5 2.5605469 C 8.224 2.5605469 8 2.7845469 8 3.0605469 L 8 12.119141 C 8 12.320141 8.1206406 12.504031 8.3066406 12.582031 C 8.4946406 12.662031 8.7075625 12.620516 8.8515625 12.478516 L 16.460938 4.9824219 C 16.464903 4.9787381 16.470736 4.9784431 16.474609 4.9746094 C 16.478063 4.9711558 16.479091 4.9664194 16.482422 4.9628906 L 18.052734 3.4160156 C 18.196734 3.2730156 18.239109 3.0590938 18.162109 2.8710938 C 18.085109 2.6820937 17.902219 2.5605469 17.699219 2.5605469 L 16 2.5605469 L 16 2.0292969 L 23 2.0292969 L 23 2.5859375 L 18.576172 7.0585938 C 18.573032 7.0615768 18.569487 7.0633259 18.566406 7.0664062 C 18.562924 7.0698884 18.561952 7.0745664 18.558594 7.078125 L 12.929688 12.771484 C 12.790922 12.739922 12.647565 12.720703 12.5 12.720703 L 12 12.720703 C 10.897 12.720703 10 13.617703 10 14.720703 C 10 14.861703 10.014016 14.999812 10.041016 15.132812 C 9.7592867 15.433267 9.5872977 15.804079 9.5273438 16.207031 L 4.7929688 21 L 3.5 21 L 3.5 2.9902344 C 3.5 2.7142344 3.276 2.4902344 3 2.4902344 L 2 2.4902344 L 2 2 z M 15.767578 3.5605469 L 16.482422 3.5605469 L 16.123047 3.9160156 L 15.767578 3.5605469 z M 2.5 10.707031 L 2.5 13.292969 L 1.2070312 12 L 2.5 10.707031 z M 12 14.222656 C 11.724 14.222656 11.5 14.446656 11.5 14.722656 C 11.5 14.998656 11.724 15.222656 12 15.222656 L 12.5 15.222656 C 12.776 15.222656 13 14.998656 13 14.722656 C 13 14.446656 12.776 14.222656 12.5 14.222656 L 12 14.222656 z M 14.742188 15.998047 C 14.466188 15.998047 14.242188 16.222047 14.242188 16.498047 C 14.242187 16.708047 14.370688 16.888891 14.554688 16.962891 L 13.365234 20.853516 C 13.319234 21.005516 13.347406 21.170828 13.441406 21.298828 C 13.535406 21.425828 13.68575 21.5 13.84375 21.5 L 14.931641 21.5 C 15.207641 21.5 15.431641 21.276 15.431641 21 C 15.431641 20.724 15.207641 20.5 14.931641 20.5 L 14.519531 20.5 L 15.4375 17.498047 L 17.302734 17.498047 C 17.515734 17.498047 17.705391 17.363109 17.775391 17.162109 L 17.832031 16.998047 L 17.847656 16.998047 L 16.527344 20.837891 C 16.474344 20.989891 16.49975 21.158062 16.59375 21.289062 C 16.68775 21.421062 16.839 21.5 17 21.5 L 18.087891 21.5 C 18.363891 21.5 18.587891 21.276 18.587891 21 C 18.587891 20.724 18.363891 20.5 18.087891 20.5 L 17.699219 20.5 L 18.732422 17.498047 L 20.527344 17.498047 C 20.740344 17.498047 20.93 17.363109 21 17.162109 L 21.056641 16.998047 L 21.070312 16.998047 L 19.751953 20.837891 C 19.698953 20.989891 19.722406 21.158062 19.816406 21.289062 C 19.910406 21.421062 20.063609 21.5 20.224609 21.5 L 21.3125 21.5 C 21.5885 21.5 21.8125 21.276 21.8125 21 C 21.8125 20.724 21.5885 20.5 21.3125 20.5 L 20.923828 20.5 L 22.068359 17.171875 L 22.253906 16.671875 C 22.309906 16.518875 22.289313 16.346891 22.195312 16.212891 C 22.102312 16.077891 21.949156 15.998047 21.785156 15.998047 L 20.701172 15.998047 C 20.488172 15.998047 20.298516 16.132984 20.228516 16.333984 L 20.171875 16.498047 L 19.048828 16.498047 C 19.048781 16.397331 19.030146 16.297628 18.970703 16.212891 C 18.877703 16.077891 18.724547 15.998047 18.560547 15.998047 L 17.478516 15.998047 C 17.265516 15.998047 17.075859 16.132984 17.005859 16.333984 L 16.947266 16.498047 L 15.707031 16.498047 C 15.707139 16.392029 15.685473 16.286884 15.621094 16.199219 C 15.527094 16.072219 15.378703 15.998047 15.220703 15.998047 L 14.742188 15.998047 z"/></svg>