<svg xmlns="http://www.w3.org/2000/svg"  viewBox="0 0 128 128" width="40px" height="40px" fill="#3b82f6"><path d="M3.1 54c0 2.9 1.8 5.5 4.5 6.5L21 65.7V89c0 20.4 23 23 43 23s43-2.6 43-23l0-19.5c0-2.3-1.1-4.5-3-5.8-1.9-1.3-4.3-1.6-6.5-.8L67.9 74.3c-2.5 1-5.4 1-7.9 0L9.8 54.9c-.5-.2-.6-.6-.6-.9s.1-.7.6-.9l50.3-19.3c2.5-1 5.4-1 7.9 0l50.3 19.3c.6.2.8.7.8 1 0 .1 0 .1 0 .2V69c0 1.7 1.3 3 3 3s3-1.3 3-3V54.3c.1-3-1.7-5.7-4.6-6.8L70.1 28.1c-3.9-1.5-8.3-1.5-12.2 0L7.6 47.5C4.9 48.5 3.1 51.1 3.1 54zM27 68l30.9 11.9c3.9 1.5 8.3 1.5 12.2 0l29.5-11.3c.4-.2.8 0 .9.1.2.1.4.4.4.8l0 19.5c0 11.9-11.1 17-37 17s-37-5.1-37-17V68zM122 81c-1.7 0-3 1.3-3 3v5c0 1.7 1.3 3 3 3s3-1.3 3-3v-5C125 82.3 123.7 81 122 81z"/></svg>
