<svg xmlns="http://www.w3.org/2000/svg"  viewBox="0 0 32 32" width="40px" height="40px" fill="#3b82f6"><path d="M 23 3 L 23 5.203125 C 22.632316 5.292804 22.291386 5.3942541 21.982422 5.5683594 L 20.464844 4.0507812 L 19.050781 5.4648438 L 20.578125 6.9921875 C 20.397656 7.3177253 20.254749 7.6439065 20.169922 8 L 18 8 L 18 10 L 20.169922 10 C 20.254752 10.356094 20.397656 10.682276 20.578125 11.007812 L 19.050781 12.535156 L 20.464844 13.949219 L 21.982422 12.431641 C 22.291386 12.605746 22.632316 12.707196 23 12.796875 L 23 15 L 25 15 L 25 12.796875 C 25.367684 12.707195 25.708614 12.605746 26.017578 12.431641 L 27.535156 13.949219 L 28.949219 12.535156 L 27.421875 11.007812 C 27.602344 10.682275 27.745251 10.356094 27.830078 10 L 30 10 L 30 8 L 27.830078 8 C 27.745251 7.6439065 27.602344 7.3177253 27.421875 6.9921875 L 28.949219 5.4648438 L 27.535156 4.0507812 L 26.017578 5.5683594 C 25.708614 5.3942541 25.367684 5.2928043 25 5.203125 L 25 3 L 23 3 z M 6.8066406 3.3925781 L 5.3925781 4.8066406 L 7.4921875 6.90625 L 8.90625 5.4921875 L 6.8066406 3.3925781 z M 16.314453 4.0449219 C 15.874203 4.0312969 15.430781 4.0504688 14.988281 4.1054688 C 10.984281 4.5504688 7.672375 7.8132813 7.109375 11.863281 C 6.690375 14.905281 7.8640469 17.933937 10.248047 19.960938 C 11.361047 20.913937 12 22.313781 12 23.800781 L 12 24 L 12 25 L 12 29 L 14.279297 29 C 14.626961 29.594518 15.265223 30 16 30 C 16.734994 30 17.373113 29.594808 17.720703 29 L 20 29 L 20 25 L 20 23.800781 C 20 22.423781 20.739422 20.979031 22.107422 19.707031 C 22.922422 18.892031 23.567875 17.974047 24.046875 16.998047 C 24.031875 16.998047 24.016 17 24 17 C 23.282 17 22.589734 16.89575 21.927734 16.71875 C 21.594734 17.26875 21.195703 17.792578 20.720703 18.267578 C 19.207703 19.672578 18.280687 21.327 18.054688 23 L 13.955078 23 C 13.757078 21.232 12.905828 19.6015 11.548828 18.4375 C 9.6568281 16.8295 8.7598437 14.533672 9.0898438 12.138672 C 9.5278438 8.9826719 12.103609 6.4397969 15.224609 6.0917969 C 15.677609 6.0347969 16.125406 6.0276406 16.566406 6.0566406 C 16.834406 5.3806406 17.191047 4.7526406 17.623047 4.1816406 C 17.191547 4.1051406 16.754703 4.0585469 16.314453 4.0449219 z M 24 7 C 24.749999 7 25.185226 7.2452444 25.501953 7.6015625 C 25.81868 7.9578806 26 8.4722221 26 9 C 26 9.5277779 25.81868 10.042119 25.501953 10.398438 C 25.185226 10.754755 24.749999 11 24 11 C 23.250001 11 22.814774 10.754756 22.498047 10.398438 C 22.18132 10.042118 22 9.5277779 22 9 C 22 8.4722221 22.18132 7.9578806 22.498047 7.6015625 C 22.814774 7.2452444 23.250001 7 24 7 z M 2 13 L 2 15 L 5 15 L 5 13 L 2 13 z M 7.4921875 21.09375 L 5.3925781 23.193359 L 6.8066406 24.607422 L 8.90625 22.507812 L 7.4921875 21.09375 z M 24.507812 21.09375 L 23.09375 22.507812 L 25.193359 24.607422 L 26.607422 23.193359 L 24.507812 21.09375 z M 14 25 L 18 25 L 18 27 L 14 27 L 14 25 z"/></svg>
