<svg xmlns="http://www.w3.org/2000/svg"  viewBox="0 0 50 50" width="28px" height="28px"><path d="M 33 1 C 32.349378 1 32.01396 1.2095027 31.474609 1.4472656 C 30.935259 1.6850285 30.321592 1.99415 29.707031 2.3203125 C 28.47791 2.9726375 27.248329 3.6921858 26.734375 3.9960938 C 26.280254 4.2649809 26 4.7654067 26 5.2851562 L 26 8 L 26 11 L 28 11 L 28 7.2792969 L 28 5.5761719 C 28.563472 5.2447789 29.566423 4.658116 30.644531 4.0859375 C 31.23422 3.772975 31.818163 3.4814871 32.28125 3.2773438 C 32.744337 3.0732004 33.217122 3 33 3 C 32.96183 3 33.457251 3.075707 34.017578 3.2421875 C 34.577905 3.4086681 35.283513 3.6467 36.035156 3.9121094 C 37.038938 4.2665503 38.01423 4.6268602 38.970703 4.9765625 C 37.715844 5.749357 36.700177 6.8375015 36.011719 8.1152344 C 35.87999 8.342856 35.763733 8.5803664 35.658203 8.8242188 C 35.654561 8.8328467 35.650098 8.8409683 35.646484 8.8496094 C 35.603178 8.9508375 35.55413 9.0483205 35.515625 9.1523438 L 35.539062 9.1601562 C 35.318756 9.7513878 35.150818 10.364429 35.070312 11 L 37.089844 11 C 37.177664 10.468197 37.336171 9.9565298 37.552734 9.4726562 C 37.56106 9.4539922 37.567668 9.434591 37.576172 9.4160156 C 38.018799 8.452367 38.70263 7.6103691 39.560547 6.9746094 C 39.587907 6.954417 39.614856 6.9338326 39.642578 6.9140625 C 39.823183 6.784712 40.014019 6.6669739 40.208984 6.5566406 C 40.25384 6.5314097 40.296196 6.5027047 40.341797 6.4785156 C 40.572614 6.3553066 40.812318 6.2449542 41.060547 6.1503906 L 41.050781 6.1230469 C 41.560146 5.9493149 41.937668 5.4818488 41.982422 5.0039062 C 42.032722 4.4667677 41.679401 3.8245749 41.095703 3.6191406 L 41.09375 3.6191406 C 39.930066 3.2097615 38.236033 2.567359 36.701172 2.0253906 C 35.93344 1.7543 35.204453 1.5079881 34.585938 1.3242188 C 33.967421 1.1404494 33.538167 1 33 1 z M 17 1.0195312 C 16.462 1.0195312 16.032561 1.1601009 15.414062 1.34375 C 14.795566 1.5273991 14.0685 1.7740254 13.300781 2.0449219 C 11.765343 2.5867148 10.069912 3.2278911 8.90625 3.6367188 C 8.3216687 3.841587 7.967168 4.4836181 8.0175781 5.0214844 C 8.0623503 5.4991946 8.4416227 5.9656266 8.9511719 6.1386719 L 8.9394531 6.1699219 C 9.0028198 6.1940616 9.0607877 6.2278395 9.1230469 6.2539062 C 9.349575 6.3481366 9.5687258 6.4525633 9.7792969 6.5703125 C 9.9215993 6.6505007 10.056725 6.73967 10.191406 6.8300781 C 10.310489 6.9094496 10.426349 6.9932697 10.539062 7.0800781 C 10.685248 7.1934238 10.82979 7.3084559 10.964844 7.4335938 C 11.037178 7.5002947 11.102899 7.572694 11.171875 7.6425781 C 12.069203 8.5554584 12.687677 9.72372 12.900391 11 L 14.919922 11 C 14.782558 9.8862384 14.41628 8.8273391 13.863281 7.8789062 L 13.873047 7.8730469 C 13.739009 7.6430823 13.579746 7.4326071 13.419922 7.2226562 C 12.782405 6.3353275 11.971781 5.5777199 11.025391 4.9960938 C 11.987448 4.6445215 12.959649 4.2843791 13.964844 3.9296875 C 14.7165 3.664459 15.422076 3.4261478 15.982422 3.2597656 C 16.542768 3.0933834 17.038 3.0195313 17 3.0195312 C 16.783263 3.0195312 17.255722 3.0909602 17.71875 3.2949219 C 18.181778 3.4988835 18.765816 3.792799 19.355469 4.1054688 C 20.433793 4.6772615 21.435589 5.2625074 22 5.59375 L 22 11 L 24 11 L 24 5.3007812 C 24 4.7810317 23.719746 4.2806059 23.265625 4.0117188 L 23.265625 4.0097656 C 22.752145 3.7069406 21.519959 2.989551 20.291016 2.3378906 C 19.676544 2.0120604 19.064644 1.702382 18.525391 1.4648438 C 17.986138 1.2273054 17.650237 1.0195314 17 1.0195312 z M 40.537109 4.2304688 L 40.595703 4.9257812 L 40.388672 4.3847656 C 40.442772 4.3291042 40.46604 4.2424162 40.537109 4.2304688 z M 9.4609375 4.2460938 C 9.533448 4.2580741 9.5555691 4.3479428 9.6113281 4.4042969 L 9.4023438 4.953125 L 9.4609375 4.2460938 z M 9 13 C 6.8026661 13 5 14.802666 5 17 L 5 19 L 18.585938 19 L 20.082031 20.498047 L 26.080078 13 L 24 13 L 9 13 z M 31.375 13 C 30.558416 13 29.948134 13.434922 29.458984 13.900391 C 28.969835 14.365859 28.567353 14.921447 28.222656 15.462891 C 27.533263 16.545779 27.082031 17.605469 27.082031 17.605469 L 26.482422 19 L 39.585938 19 L 41.082031 20.498047 L 47.080078 13 L 45 13 L 31.375 13 z M 9 15 L 21.917969 15 L 19.916016 17.501953 L 19.414062 17 L 7 17 C 7 15.883334 7.8833339 15 9 15 z M 31.375 15 L 42.917969 15 L 40.916016 17.501953 L 40.414062 17 L 29.662109 17 C 29.782146 16.783326 29.76455 16.765825 29.910156 16.537109 C 30.202084 16.078553 30.538884 15.634141 30.837891 15.349609 C 31.136898 15.065078 31.363084 15 31.375 15 z M 5 20 L 14 32 L 10.414062 32 L 8.9179688 30.501953 L 2.9199219 38 L 18.619141 38 C 20.490572 38 21.984305 36.872391 22.628906 35.400391 C 23.272963 33.929634 23.132726 32.091833 22.017578 30.626953 L 22.017578 30.625 L 13.998047 20 L 5 20 z M 26.324219 20 L 26.072266 20.626953 C 26.072266 20.626953 23.271829 27.252464 26.474609 32.519531 C 29.35114 37.261687 33.289264 38.286959 36.314453 37.927734 C 39.339953 37.568473 41.572266 35.986328 41.572266 35.986328 L 44.730469 33.777344 L 40.898438 34.171875 C 40.858897 34.175975 40.786687 34.177734 40.679688 34.177734 L 40.667969 34.177734 L 40.654297 34.177734 C 38.092015 34.239035 36.513461 33.495078 35.40625 32.373047 C 34.299039 31.251016 33.661714 29.665755 33.341797 28 C 32.701963 24.66849 33.357422 21.191406 33.357422 21.191406 L 33.587891 20 L 26.324219 20 z M 9 22 L 13.001953 22 L 20.423828 31.833984 L 20.425781 31.835938 C 21.108037 32.730451 21.157273 33.77661 20.796875 34.599609 C 20.43643 35.422563 19.727709 36 18.619141 36 L 7.0820312 36 L 9.0839844 33.498047 L 9.5859375 34 L 18 34 L 9 22 z M 27.78125 22 L 31.25 22 C 31.073492 23.240835 30.830535 25.521673 31.378906 28.376953 C 31.746115 30.288948 32.490977 32.265937 33.982422 33.777344 C 34.798647 34.604494 35.886088 35.20864 37.150391 35.626953 C 36.766218 35.725963 36.5048 35.890973 36.080078 35.941406 C 33.625328 36.232895 30.727986 35.676065 28.183594 31.480469 L 28.183594 31.478516 C 25.890026 27.706723 27.463542 22.915746 27.78125 22 z M 26 35.349609 L 26 41.119141 L 26 49.515625 L 27.394531 48.919922 C 27.394531 48.919922 29.209424 48.141327 31.279297 46.847656 C 33.349169 45.553986 35.730553 43.775222 36.894531 41.447266 L 37 41.236328 L 37 40.25 L 37 39.849609 C 36.41 39.949609 35.780859 40 35.130859 40 L 35 40 L 35 40.619141 L 35 40.681641 C 34.12168 42.312309 32.100644 43.977381 30.220703 45.152344 C 29.035218 45.893272 28.666567 46.015345 28 46.335938 L 28 39 L 28 37.410156 C 27.29 36.830156 26.62 36.139609 26 35.349609 z M 24 37.050781 C 23.49 37.890781 22.8 38.570547 22 39.060547 L 22 41.980469 L 22 46.316406 C 21.333429 45.996121 20.964779 45.873072 19.779297 45.132812 C 17.899428 43.958952 15.878202 42.297016 15 40.667969 L 15 40 L 13 40 L 13 41.222656 L 13.105469 41.433594 C 14.269631 43.760171 16.650825 45.537569 18.720703 46.830078 C 20.790581 48.122587 22.605469 48.898438 22.605469 48.898438 L 24 49.496094 L 24 40 L 24 37.050781 z"/></svg>