<svg xmlns="http://www.w3.org/2000/svg"  viewBox="0 0 64 64" width="64px" height="64px" fill="#3b82f6"><path d="M 3 7 C 2.4 7 2 7.4 2 8 L 2 31 L 2 61 C 2 61.6 2.4 62 3 62 L 33 62 C 33.4 62 33.800391 61.800391 33.900391 61.400391 C 34.100391 61.000391 33.999219 60.600781 33.699219 60.300781 L 24.400391 51 L 55 51 L 55 56 C 55 56.6 55.4 57 56 57 C 59.3 57 62 54.3 62 51 L 62 13 C 62 9.7 59.3 7 56 7 L 3 7 z M 4 9 L 56 9 C 58.2 9 60 10.8 60 13 C 60 15.2 58.2 17 56 17 C 55.4 17 55 17.4 55 18 L 55 49 L 22.400391 49 L 17 43.599609 L 17 25 L 20 25 C 20.2 25 20.3 25.000391 20.5 24.900391 L 27.5 20.900391 C 27.9 20.700391 28.1 20.200781 28 19.800781 C 27.9 19.400781 27.5 19.099609 27 19.099609 L 17 19.099609 L 17 17.099609 L 27 17.099609 C 27.5 17.099609 27.9 16.800391 28 16.400391 C 28.1 16.000391 27.9 15.500781 27.5 15.300781 L 20.5 11.300781 C 20.3 11.000781 20.2 11 20 11 L 16 11 L 10 11 C 9.4 11 9 11.4 9 12 L 9 15 L 7 15 L 7 17 L 9 17 L 9 20 L 9 24 L 9 26 L 8 26 L 8 25 L 6 25 L 6 29 L 8 29 L 8 28 L 9 28 L 9 35.599609 L 4 30.599609 L 4 9 z M 35 10 C 34.4 10 34 10.4 34 11 L 34 47 C 34 47.6 34.4 48 35 48 L 41 48 C 41.6 48 42 47.6 42 47 L 42 11 C 42 10.4 41.6 10 41 10 L 35 10 z M 48 10.025391 C 47.7 10.025391 47.399219 10.150391 47.199219 10.400391 L 44.199219 14.400391 C 44.099219 14.600391 44 14.8 44 15 L 44 44 C 44 46.2 45.8 48 48 48 C 50.2 48 52 46.2 52 44 L 52 15 C 52 14.8 51.900781 14.600391 51.800781 14.400391 L 48.800781 10.400391 C 48.600781 10.150391 48.3 10.025391 48 10.025391 z M 36 12 L 40 12 L 40 46 L 36 46 L 36 44 L 38 44 L 38 42 L 36 42 L 36 40 L 38 40 L 38 38 L 36 38 L 36 36 L 38 36 L 38 34 L 36 34 L 36 32 L 38 32 L 38 30 L 36 30 L 36 28 L 38 28 L 38 26 L 36 26 L 36 24 L 38 24 L 38 22 L 36 22 L 36 20 L 38 20 L 38 18 L 36 18 L 36 16 L 38 16 L 38 14 L 36 14 L 36 12 z M 48 12.699219 L 49.699219 15 L 46.199219 15 L 48 12.699219 z M 11 13 L 15 13 L 15 19 L 11 19 L 11 13 z M 17 13 L 19.699219 13 L 23.199219 15 L 17 15 L 17 13 z M 46 17 L 47 17 L 47 40 L 46 40 L 46 17 z M 49 17 L 50 17 L 50 40 L 49 40 L 49 17 z M 60 17.400391 L 60 51 C 60 52.9 58.7 54.400391 57 54.900391 L 57 50 L 57 18.900391 C 58.1 18.700391 59.2 18.200391 60 17.400391 z M 11 21 L 23.199219 21 L 19.699219 23 L 11 23 L 11 21 z M 11 25 L 15 25 L 15 41.599609 L 11 37.599609 L 11 25 z M 4 33.400391 L 30.599609 60 L 4 60 L 4 33.400391 z M 6.8984375 40.003906 C 6.8 40.017969 6.6996094 40.049609 6.5996094 40.099609 C 6.1996094 40.199609 6 40.6 6 41 L 6 57 C 6 57.6 6.4 58 7 58 L 23 58 C 23.4 58 23.800391 57.800391 23.900391 57.400391 C 24.100391 57.000391 23.999219 56.600781 23.699219 56.300781 L 7.6992188 40.300781 C 7.4742188 40.075781 7.19375 39.961719 6.8984375 40.003906 z M 46 42 L 50 42 L 50 44 C 50 45.1 49.1 46 48 46 C 46.9 46 46 45.1 46 44 L 46 42 z M 8 43.400391 L 9 44.400391 L 9 49 L 8 49 L 8 43.400391 z M 11 46.400391 L 15 50.400391 L 15 56 L 11 56 L 11 46.400391 z M 8 51 L 9 51 L 9 56 L 8 56 L 8 51 z M 17 52.400391 L 20.599609 56 L 17 56 L 17 52.400391 z"/></svg>
