<svg xmlns="http://www.w3.org/2000/svg"  viewBox="0 0 256 256" width="64px" height="64px"><path fill="#60bae2" d="M66.254,235.96l-35.92-62.216c-0.558-0.967-1.795-1.299-2.762-0.741c0,0-0.001,0-0.001,0.001L3.727,186.771 c-0.967,0.558-1.299,1.795-0.741,2.762c0,0,0,0.001,0.001,0.001L39.918,253.5l0,0l25.6-14.778 C66.484,238.162,66.813,236.926,66.254,235.96z"/><path fill="#e9e9ea" d="M42.143,169.862l-10.5,6.146l32.78,56.777l10.53-6.1c1.118-0.645,1.501-2.074,0.857-3.192 c0,0,0-0.001-0.001-0.001l-30.47-52.776c-0.645-1.118-2.074-1.501-3.192-0.856C42.146,169.861,42.144,169.861,42.143,169.862z"/><path fill="#f9d0b4" d="M97.828,128.763l-4.951,2.859l6.354,11.006l9.913-5.723l-3.489-6.044 C104.067,128.128,100.57,127.19,97.828,128.763z"/><path fill="#f9d0b4" d="M130.386,150.9c-2.094-3.626-6.731-4.869-10.357-2.775c0,0-0.001,0-0.001,0.001 c3.688-1.984,5.069-6.582,3.085-10.269s-6.582-5.069-10.269-3.085c-0.134,0.072-0.267,0.149-0.397,0.229l-12.512,7.224 l-13.108,7.568l-6.354-11.006l-4.66,2.691c-2.488,1.466-4.405,3.733-5.437,6.431c-5.167,10.6,0.341,11.49-23.6,25.311l27.609,47.82 c14.126-7.74,17.905-11.478,26.539-13.325c4.251-1.1,9.1-1.279,15.376-4.9l26.473-15.284c3.627-2.094,4.869-6.731,2.775-10.357 s-6.731-4.869-10.357-2.775c3.627-2.093,4.869-6.73,2.776-10.357c-2.093-3.627-6.73-4.869-10.357-2.776l0,0 c3.628-2.092,4.873-6.728,2.781-10.356C130.389,150.906,130.388,150.903,130.386,150.9z"/><path fill="#fcd770" d="M112.222,87.511c1.817-1.045,3.329-2.548,4.385-4.358c0.385-0.646,1.044-1.081,1.79-1.179 c1.242-0.17,2.438-0.581,3.523-1.208l0.022-0.013c1.134-0.686,2.61-0.323,3.296,0.812c0.006,0.009,0.011,0.018,0.016,0.027 l4.636,8.03c1.516,2.626,4.874,3.526,7.5,2.01c2.626-1.516,3.526-4.874,2.01-7.5l-4.635-8.032c-0.667-1.131-0.291-2.588,0.84-3.255 c0.032-0.019,0.064-0.037,0.096-0.054c0.153-0.077,0.305-0.159,0.455-0.246c2.081-1.198,3.642-3.129,4.378-5.415 c0.413-1.247,1.694-1.986,2.98-1.72c4.864,1.039,9.725-1.768,11.256-6.5c0.413-1.246,1.694-1.986,2.98-1.72 c4.694,1.003,9.415-1.577,11.106-6.069c0.4-1.103,1.48-1.81,2.651-1.735c4.375,0.286,8.462-2.19,10.235-6.2l70.71,122.473 c1.719,2.998,0.694,6.821-2.293,8.558l-67.218,38.808c-2.998,1.719-6.821,0.694-8.558-2.293l-70.32-121.8 C106.865,89.439,109.756,88.936,112.222,87.511z"/><path fill="#ffae2c" d="M129.943,194.936c3.566,3.42,8.961,4.077,13.243,1.613l17.254-9.961l7.161,12.4l-17.254,9.961 c-11.13,6.405-25.287,3.519-33.021-6.732L129.943,194.936z"/><path fill="#ffae2c" d="M89.768,126.236c-0.312-0.574-0.12-1.293,0.438-1.634l25.835-14.916l-7.161-12.4L83.044,112.2 c-7.414,4.292-9.955,13.776-5.68,21.2l9.463,16.391l12.4-7.161L89.768,126.236z"/><path fill="#ffae2c" d="M224.782,159.008L224.782,159.008c-2.922,1.687-6.659,0.686-8.346-2.236l-38.725-67.074 c-1.687-2.922-0.686-6.659,2.236-8.346l0,0c2.922-1.687,6.659-0.686,8.346,2.236l38.725,67.074 C228.706,153.584,227.705,157.321,224.782,159.008z"/><path fill="#ffae2c" d="M203.617,171.227L203.617,171.227c-2.922,1.687-6.659,0.686-8.346-2.236l-38.725-67.074 c-1.687-2.922-0.686-6.659,2.236-8.346l0,0c2.922-1.687,6.659-0.686,8.346,2.236l38.725,67.074 C207.541,165.803,206.54,169.54,203.617,171.227z"/><path fill="#ffae2c" d="M182.452,183.447L182.452,183.447c-2.922,1.687-6.659,0.686-8.346-2.236l-38.725-67.074 c-1.687-2.922-0.686-6.659,2.236-8.346l0,0c2.922-1.687,6.659-0.686,8.346,2.236l38.725,67.074 C186.375,178.023,185.374,181.76,182.452,183.447z"/><path fill="#ffae2c" d="M249.813,161.095l2.637,4.567c1.719,2.998,0.694,6.821-2.293,8.558l-67.218,38.808 c-2.998,1.719-6.821,0.694-8.558-2.293l-2.637-4.567L249.813,161.095z"/><path fill="#ffae2c" d="M116.607,83.152c0.385-0.646,1.044-1.081,1.79-1.179c1.242-0.17,2.438-0.581,3.523-1.208l0.022-0.013 c1.134-0.686,2.61-0.323,3.296,0.812c0.006,0.009,0.011,0.018,0.016,0.027l4.636,8.03c0.528,0.916,1.311,1.659,2.254,2.139 L112.3,103.214l-8.242-14.276c4.981,0.892,9.99-1.418,12.546-5.786L116.607,83.152z"/><path fill="#ffae2c" d="M135.7,72.793c0.153-0.077,0.305-0.159,0.455-0.246c2.081-1.198,3.642-3.129,4.378-5.415 c0.413-1.247,1.694-1.986,2.98-1.72c4.864,1.039,9.725-1.768,11.256-6.5c0.413-1.246,1.694-1.986,2.98-1.72 c4.694,1.003,9.415-1.577,11.106-6.069c0.4-1.103,1.48-1.81,2.651-1.735c4.375,0.286,8.462-2.19,10.235-6.2l8.633,14.952 l-50.249,29.012c0.056-1.056-0.196-2.105-0.725-3.021l-4.635-8.031c-0.666-1.131-0.29-2.588,0.841-3.255 C135.637,72.827,135.668,72.81,135.7,72.793z"/><circle cx="93.117" cy="47.89" r="5.49" fill="#ffe5a4"/><path fill="#ffe5a4" d="M95.1,81.87c-2.217-4.955-0.808-10.781,3.428-14.176c1.738-1.416,3.835-2.323,6.057-2.621 c0.979-0.139,1.747-0.91,1.882-1.889c0.359-2.585,1.672-4.943,3.681-6.609c0.763-0.651,1.035-1.711,0.68-2.649 c-1.742-4.775,0.198-10.112,4.6-12.654c0.668-0.385,1.378-0.694,2.115-0.921c0.715-0.236,1.251-0.834,1.408-1.571 c1.99-8.546,10.531-13.861,19.077-11.871c2.891,0.673,5.535,2.143,7.634,4.242c0.815,0.817,2.129,0.851,2.985,0.077 c0.565-0.523,1.188-0.982,1.855-1.367c3.848-2.22,8.678-1.767,12.045,1.131c0.808,0.706,2.011,0.709,2.823,0.008 c4.388-3.763,10.995-3.256,14.758,1.132c3.763,4.388,3.256,10.995-1.132,14.758c-2.075,1.779-4.763,2.676-7.49,2.499 c-1.171-0.075-2.251,0.632-2.651,1.735c-1.691,4.492-6.412,7.072-11.106,6.069c-1.286-0.266-2.567,0.474-2.98,1.72 c-1.531,4.732-6.392,7.539-11.256,6.5c-1.286-0.266-2.567,0.474-2.98,1.72c-0.736,2.286-2.297,4.217-4.378,5.415 c-0.151,0.087-0.302,0.169-0.455,0.246c-1.16,0.614-1.604,2.052-0.99,3.213c0.017,0.033,0.035,0.065,0.054,0.096l4.636,8.027 c1.516,2.626,0.617,5.983-2.009,7.5c0,0-0.001,0-0.001,0l0,0c-2.626,1.516-5.983,0.617-7.5-2.009c0,0,0-0.001,0-0.001l-4.636-8.03 c-0.671-1.143-2.141-1.526-3.285-0.855c-0.009,0.005-0.018,0.011-0.027,0.016l-0.022,0.013c-1.085,0.627-2.281,1.038-3.523,1.208 c-0.746,0.098-1.405,0.533-1.79,1.179c-3.368,5.759-10.768,7.698-16.528,4.329C97.866,86.186,96.122,84.221,95.1,81.87z"/><path fill="#ffae2c" d="M224.851,42.994c-4.457-0.857-7.943-4.343-8.8-8.8c-0.023-0.108-0.13-0.177-0.238-0.153 c-0.077,0.017-0.137,0.077-0.153,0.153c-0.857,4.457-4.343,7.943-8.8,8.8c-0.108,0.023-0.177,0.13-0.153,0.238 c0.017,0.077,0.077,0.137,0.153,0.153c4.457,0.857,7.943,4.343,8.8,8.8c0.023,0.108,0.13,0.177,0.238,0.153 c0.077-0.017,0.137-0.077,0.153-0.153c0.857-4.457,4.343-7.943,8.8-8.8c0.108-0.023,0.177-0.13,0.153-0.238 C224.988,43.071,224.928,43.011,224.851,42.994z"/><path fill="#60bae2" d="M153.871,9.363h-8.706c-1.383,0-2.505-1.122-2.505-2.505s1.122-2.505,2.505-2.505h8.706 c1.383,0,2.505,1.122,2.505,2.505S155.254,9.363,153.871,9.363z"/><path fill="#60bae2" d="M149.518,13.716c-1.381,0-2.5-1.119-2.5-2.5V2.5c0-1.383,1.122-2.505,2.505-2.505 c1.383,0,2.505,1.122,2.505,2.505v8.706c0.006,1.381-1.109,2.504-2.49,2.51C149.531,13.716,149.525,13.716,149.518,13.716z"/><path fill="#f75c64" d="M171.032,19.074c-0.664-0.001-1.301-0.263-1.773-0.731c-0.116-0.116-0.22-0.244-0.311-0.381 c-0.09-0.138-0.167-0.284-0.23-0.436c-0.062-0.15-0.109-0.306-0.14-0.466c-0.034-0.161-0.051-0.326-0.05-0.491 c-0.001-0.165,0.016-0.33,0.05-0.491c0.031-0.16,0.078-0.316,0.14-0.466c0.063-0.152,0.14-0.298,0.23-0.436 c0.091-0.137,0.195-0.265,0.311-0.381c0.72-0.71,1.794-0.923,2.73-0.541c0.15,0.064,0.295,0.141,0.431,0.23 c0.138,0.089,0.266,0.193,0.381,0.31c0.116,0.117,0.22,0.244,0.311,0.381c0.09,0.138,0.167,0.284,0.23,0.436 c0.063,0.15,0.112,0.306,0.145,0.466c0.032,0.162,0.049,0.326,0.05,0.491c-0.002,0.165-0.018,0.329-0.05,0.491 c-0.033,0.16-0.082,0.316-0.145,0.466c-0.063,0.152-0.14,0.298-0.23,0.436c-0.091,0.137-0.195,0.264-0.311,0.381 c-0.115,0.117-0.243,0.221-0.381,0.311c-0.136,0.089-0.281,0.166-0.431,0.23c-0.152,0.062-0.31,0.109-0.471,0.14 C171.358,19.057,171.195,19.074,171.032,19.074z"/><path fill="#f75c64" d="M76.119,94.871c-0.664-0.001-1.301-0.263-1.773-0.731c-0.116-0.116-0.22-0.244-0.311-0.381 c-0.09-0.138-0.167-0.284-0.23-0.436c-0.062-0.15-0.109-0.306-0.14-0.466c-0.034-0.161-0.051-0.326-0.05-0.491 c-0.001-0.165,0.016-0.33,0.05-0.491c0.031-0.16,0.078-0.316,0.14-0.466c0.063-0.152,0.14-0.298,0.23-0.436 c0.091-0.137,0.195-0.265,0.311-0.381c0.72-0.71,1.794-0.923,2.73-0.541c0.15,0.064,0.295,0.141,0.431,0.23 c0.138,0.089,0.266,0.193,0.381,0.31c0.116,0.117,0.22,0.244,0.311,0.381c0.09,0.138,0.167,0.284,0.23,0.436 c0.063,0.15,0.112,0.306,0.145,0.466c0.032,0.162,0.049,0.326,0.05,0.491c-0.002,0.165-0.018,0.329-0.05,0.491 c-0.033,0.16-0.082,0.316-0.145,0.466c-0.063,0.152-0.14,0.298-0.23,0.436c-0.091,0.137-0.195,0.264-0.311,0.381 c-0.115,0.117-0.243,0.221-0.381,0.311c-0.136,0.089-0.281,0.166-0.431,0.23c-0.152,0.062-0.31,0.109-0.471,0.14 C76.445,94.854,76.282,94.871,76.119,94.871z"/><path fill="#231f20" d="M39.92,256c-0.894,0.001-1.72-0.476-2.167-1.25L0.821,190.783c-1.246-2.163-0.505-4.927,1.655-6.178 l23.844-13.766c2.163-1.249,4.928-0.509,6.177,1.654c0,0,0,0.001,0.001,0.001l35.92,62.215l0,0 c1.246,2.163,0.505,4.927-1.655,6.178l-25.6,14.777C40.785,255.883,40.357,255.999,39.92,256z M5.39,188.7l35.443,61.388 L63.85,236.8l-35.443-61.391L5.39,188.7z"/><path fill="#231f20" d="M64.42,235.284c-0.893,0-1.718-0.477-2.165-1.25l-32.78-56.776c-0.688-1.19-0.286-2.713,0.9-3.408l10.5-6.146 l0.012-0.007c2.314-1.335,5.272-0.543,6.608,1.771l30.47,52.775c1.332,2.314,0.54,5.27-1.771,6.608l-10.527,6.1 C65.288,235.169,64.858,235.284,64.42,235.284z M35.048,176.91l30.286,52.456l8.226-4.766l-30.307-52.491L35.048,176.91z"/><path fill="#231f20" d="M99.231,145.127c-0.893,0-1.718-0.477-2.165-1.25l-6.354-11.006c-0.69-1.196-0.281-2.725,0.915-3.415 l4.951-2.858c3.937-2.262,8.962-0.916,11.241,3.012l3.489,6.044c0.69,1.196,0.281,2.725-0.915,3.415l-9.913,5.724 C100.1,145.012,99.669,145.127,99.231,145.127z M96.292,132.536l3.854,6.676l5.583-3.224l-2.239-3.879 c-0.897-1.537-2.865-2.064-4.411-1.182l0,0L96.292,132.536z M97.828,128.763L97.828,128.763z"/><path fill="#231f20" d="M101.209,161.5c-1.381,0.001-2.501-1.117-2.502-2.498c-0.001-0.894,0.476-1.72,1.25-2.167l18.822-10.867 c1.191-0.698,2.723-0.299,3.421,0.893c0.698,1.191,0.299,2.723-0.893,3.421c-0.009,0.006-0.019,0.011-0.029,0.016l-18.822,10.867 C102.078,161.385,101.647,161.5,101.209,161.5z"/><path fill="#231f20" d="M108.791,174.628c-1.381,0.001-2.501-1.117-2.502-2.498c-0.001-0.894,0.476-1.72,1.25-2.167l18.822-10.863 c1.191-0.698,2.723-0.299,3.421,0.892c0.698,1.191,0.299,2.723-0.892,3.421c-0.01,0.006-0.019,0.011-0.029,0.017l-18.822,10.867 C109.659,174.515,109.229,174.63,108.791,174.628z"/><path fill="#231f20" d="M116.374,187.761c-1.381,0.001-2.501-1.117-2.502-2.498c-0.001-0.894,0.476-1.72,1.25-2.167l18.822-10.867 c1.191-0.698,2.723-0.299,3.421,0.893c0.698,1.191,0.299,2.723-0.893,3.421c-0.009,0.006-0.019,0.011-0.029,0.016l-18.822,10.867 C117.243,187.646,116.812,187.761,116.374,187.761z"/><path fill="#231f20" d="M74.39,223.536c-0.894,0.001-1.72-0.476-2.167-1.25l-27.609-47.82c-0.69-1.196-0.281-2.725,0.915-3.415 c17.611-10.168,18.448-12.744,20.113-17.878c0.668-2.18,1.5-4.307,2.487-6.363l0.025-0.051l0.054-0.125 c1.239-3.084,3.476-5.663,6.354-7.325l4.66-2.69c1.196-0.69,2.725-0.281,3.415,0.915l5.1,8.841l23.463-13.543 c4.819-2.785,10.983-1.136,13.768,3.683c1.455,2.517,1.752,5.539,0.815,8.291c0.217,0.043,0.434,0.093,0.65,0.151 c5.376,1.439,8.567,6.963,7.128,12.339c-0.058,0.218-0.124,0.434-0.197,0.647c5.46,1.077,9.013,6.376,7.936,11.835 c-0.044,0.223-0.096,0.445-0.155,0.665c-0.058,0.215-0.123,0.429-0.193,0.638c5.46,1.081,9.01,6.384,7.929,11.843 c-0.565,2.851-2.333,5.32-4.851,6.773l-26.473,15.284c-3.994,2.246-8.355,3.763-12.881,4.479c-1.1,0.218-2.144,0.424-3.121,0.676 c-0.034,0.009-0.067,0.017-0.1,0.023c-5.544,1.187-8.953,3.217-15.142,6.9c-2.8,1.667-6.283,3.742-10.718,6.172 C75.226,223.433,74.811,223.538,74.39,223.536z M50.19,174.122l25.136,43.537c3.331-1.865,6.011-3.461,8.424-4.9 c6.409-3.816,10.284-6.124,16.6-7.483c1.1-0.281,2.191-0.5,3.348-0.727c3.989-0.603,7.835-1.924,11.352-3.9l26.473-15.284 c2.458-1.355,3.351-4.447,1.996-6.904c-1.355-2.458-4.447-3.351-6.904-1.996c-0.058,0.032-0.116,0.066-0.173,0.1 c-1.191,0.698-2.723,0.299-3.421-0.893c-0.698-1.191-0.299-2.723,0.893-3.421c0.009-0.006,0.019-0.011,0.029-0.016 c2.396-1.462,3.154-4.589,1.692-6.985c-1.412-2.315-4.392-3.113-6.772-1.815l0,0c-1.2,0.682-2.726,0.263-3.409-0.937 c-0.676-1.189-0.271-2.701,0.909-3.393c2.427-1.406,3.259-4.51,1.86-6.941l0,0c-1.403-2.431-4.511-3.263-6.942-1.86 c-1.191,0.698-2.723,0.299-3.421-0.893c-0.698-1.191-0.299-2.723,0.893-3.421c0.009-0.006,0.019-0.011,0.029-0.016 c2.458-1.355,3.351-4.447,1.996-6.904c-1.355-2.458-4.447-3.351-6.904-1.996c-0.058,0.032-0.116,0.066-0.173,0.1l-25.62,14.792 c-1.196,0.69-2.725,0.281-3.415-0.915l-5.1-8.841l-2.5,1.44c-1.929,1.131-3.426,2.873-4.253,4.951 c-0.071,0.168-0.135,0.306-0.187,0.41l0,0c-0.885,1.847-1.629,3.757-2.226,5.716c-2.058,6.334-3.733,9.697-20.208,19.395H50.19z"/><path fill="#231f20" d="M86.829,152.289c-0.894,0.001-1.72-0.476-2.167-1.25L75.2,134.648c-4.962-8.621-2.01-19.633,6.6-24.615 l25.835-14.915c1.196-0.69,2.725-0.281,3.415,0.915l7.162,12.4c0.69,1.196,0.281,2.725-0.915,3.415l-24.713,14.268l8.812,15.262 c0.69,1.196,0.281,2.725-0.915,3.415l-12.4,7.161C87.701,152.174,87.269,152.29,86.829,152.289z M107.964,100.7l-23.67,13.665 c-6.22,3.601-8.351,11.557-4.765,17.785l8.213,14.226l8.074-4.661L87.6,127.487l0,0c-0.99-1.772-0.389-4.01,1.355-5.048 l23.669-13.666L107.964,100.7z M91.934,124.991L91.934,124.991z"/><path fill="#231f20" d="M137.666,214.854c-8.783,0.011-17.058-4.113-22.338-11.132c-0.83-1.104-0.607-2.671,0.496-3.501 c0.08-0.061,0.165-0.116,0.252-0.166l12.617-7.284c0.963-0.556,2.178-0.409,2.981,0.361c2.767,2.641,6.94,3.149,10.261,1.251 l17.253-9.961c1.196-0.69,2.725-0.281,3.415,0.915l7.162,12.4c0.69,1.196,0.281,2.725-0.915,3.415l-17.25,9.966 C147.365,213.568,142.559,214.856,137.666,214.854z M121.174,202.885c7.317,7.54,18.82,9.147,27.923,3.9l15.089-8.712L159.524,190 l-15.088,8.711c-4.639,2.653-10.398,2.362-14.746-0.745L121.174,202.885z"/><path fill="#231f20" d="M179.822,216.366c-3.136,0.005-6.036-1.665-7.606-4.38l-2.637-4.567c-0.69-1.196-0.281-2.725,0.915-3.415 l78.069-45.074c1.196-0.69,2.725-0.281,3.415,0.915l2.637,4.567c2.41,4.194,0.976,9.547-3.208,11.974l-67.218,38.809 C182.862,215.963,181.355,216.367,179.822,216.366z M175.159,207.084l1.387,2.4c1.042,1.798,3.342,2.414,5.144,1.378l67.218-38.809 c1.792-1.047,2.407-3.342,1.378-5.144l-1.387-2.4L175.159,207.084z"/><path fill="#231f20" d="M93.131,55.878c-4.411,0.004-7.989-3.568-7.994-7.978c-0.004-4.411,3.568-7.989,7.978-7.994 s7.989,3.568,7.994,7.978c0.003,2.857-1.521,5.498-3.996,6.926C95.902,55.508,94.529,55.876,93.131,55.878z M93.112,44.9 c-1.652,0.004-2.989,1.346-2.985,2.999c0.001,0.523,0.139,1.036,0.4,1.488c0.828,1.428,2.656,1.914,4.084,1.086 c1.428-0.828,1.914-2.656,1.086-4.084C95.162,45.467,94.177,44.9,93.112,44.9z"/><path fill="#231f20" d="M134.659,94.87c-0.703,0-1.403-0.093-2.082-0.276c-2.05-0.543-3.797-1.884-4.852-3.723l-4.578-7.928 l-0.052,0.028c-1.344,0.77-2.824,1.272-4.358,1.479c-3.473,5.905-10.591,8.592-17.1,6.454c-3.948-1.301-7.157-4.219-8.827-8.026 l0,0c-2.701-5.986-0.993-13.041,4.147-17.129c2.035-1.65,4.474-2.727,7.064-3.12c0.478-3.083,2.054-5.888,4.438-7.9 c-2.432-6.719,1.043-14.137,7.762-16.569c0.112-0.041,0.225-0.08,0.338-0.117c2.398-9.868,12.342-15.924,22.21-13.526 c3.176,0.772,6.088,2.376,8.438,4.647c0.632-0.555,1.318-1.047,2.047-1.467c4.679-2.693,10.536-2.208,14.708,1.218 c5.539-4.539,13.708-3.729,18.247,1.81c4.539,5.539,3.729,13.708-1.81,18.247c-2.543,2.084-5.782,3.124-9.062,2.91 c-0.069,0.004-0.128,0.053-0.145,0.12c-2.124,5.652-8.064,8.898-13.968,7.634c-0.971,2.886-2.956,5.321-5.586,6.855 c-2.614,1.513-5.697,1.999-8.65,1.364c-0.972,2.885-2.956,5.32-5.585,6.855c-0.147,0.084-0.294,0.165-0.443,0.243l4.6,7.926 c2.203,3.83,0.884,8.72-2.945,10.924c-1.205,0.693-2.571,1.061-3.962,1.065L134.659,94.87z M123.173,77.908 c0.436,0,0.871,0.057,1.292,0.17c1.248,0.329,2.313,1.145,2.954,2.265l4.636,8.028c0.826,1.43,2.655,1.921,4.085,1.095 c1.43-0.826,1.921-2.655,1.095-4.085l0,0l-4.635-8.029c-0.675-1.174-0.84-2.573-0.456-3.871c0.369-1.267,1.248-2.325,2.427-2.919 c0.117-0.059,0.226-0.117,0.334-0.18c1.544-0.892,2.702-2.325,3.25-4.021c0.816-2.459,3.343-3.918,5.881-3.395 c3.61,0.772,7.218-1.312,8.355-4.824c0.817-2.458,3.343-3.919,5.881-3.4c3.482,0.745,6.986-1.168,8.243-4.5 c0.78-2.143,2.885-3.509,5.159-3.349c1.564,0.105,3.124-0.259,4.481-1.045c3.817-2.186,5.14-7.053,2.954-10.87 c-2.186-3.817-7.053-5.14-10.87-2.954c-0.44,0.252-0.854,0.545-1.238,0.876c-1.745,1.511-4.336,1.508-6.078-0.007 c-2.563-2.202-6.237-2.547-9.165-0.861c-0.504,0.291-0.974,0.639-1.4,1.035c-1.838,1.701-4.695,1.638-6.455-0.144 c-4.288-4.281-10.915-5.153-16.165-2.127c-3.217,1.841-5.517,4.944-6.342,8.558c-0.362,1.601-1.544,2.892-3.107,3.393 c-0.558,0.173-1.094,0.408-1.6,0.7c-3.357,1.928-4.835,5.995-3.5,9.628c0.719,1.933,0.145,4.109-1.434,5.435 c-1.529,1.268-2.528,3.063-2.8,5.031c-0.293,2.091-1.939,3.733-4.03,4.02c-1.769,0.236-3.438,0.956-4.824,2.079 c-3.366,2.68-4.482,7.303-2.71,11.224c2.107,4.854,7.75,7.08,12.604,4.973c1.865-0.81,3.423-2.191,4.451-3.945 c0.774-1.309,2.103-2.193,3.61-2.4c0.921-0.127,1.808-0.433,2.611-0.9l0.1-0.054C121.499,78.119,122.329,77.902,123.173,77.908z"/><path fill="#231f20" d="M179.822,216.366c-3.136,0.005-6.036-1.665-7.606-4.38L101.9,90.188c-0.69-1.196-0.281-2.725,0.915-3.415 c0.511-0.295,1.109-0.4,1.69-0.296c2.223,0.395,4.514-0.006,6.47-1.132l0,0c1.438-0.83,2.636-2.02,3.475-3.453 c0.774-1.309,2.103-2.193,3.61-2.4c0.921-0.127,1.808-0.433,2.611-0.9l0.1-0.054c1.123-0.64,2.453-0.809,3.7-0.469 c1.248,0.329,2.313,1.145,2.954,2.265l4.636,8.028c0.826,1.43,2.655,1.921,4.085,1.095c1.43-0.826,1.921-2.655,1.095-4.085 l-4.641-8.02c-0.675-1.174-0.84-2.573-0.456-3.871c0.369-1.268,1.248-2.325,2.427-2.919c0.116-0.059,0.226-0.117,0.334-0.18 c1.544-0.892,2.702-2.325,3.25-4.021c0.816-2.459,3.343-3.918,5.881-3.395c3.61,0.772,7.218-1.312,8.355-4.824 c0.818-2.458,3.343-3.918,5.881-3.4c3.482,0.745,6.986-1.168,8.243-4.5c0.78-2.143,2.885-3.509,5.159-3.349 c3.326,0.215,6.433-1.668,7.781-4.716c0.558-1.263,2.034-1.834,3.297-1.276c0.485,0.214,0.89,0.578,1.155,1.037l70.709,122.473 c2.41,4.194,0.976,9.547-3.208,11.974l-67.218,38.809C182.863,215.962,181.356,216.367,179.822,216.366z M108.4,91.457 l68.144,118.029c1.042,1.798,3.342,2.414,5.144,1.378l67.218-38.809c1.792-1.047,2.407-3.342,1.378-5.144l-68.715-119.02 c-0.857,0.898-1.838,1.668-2.914,2.288c-2.215,1.283-4.762,1.875-7.316,1.7c-0.069,0.004-0.128,0.053-0.145,0.12 c-2.124,5.652-8.064,8.898-13.968,7.634c-0.971,2.886-2.956,5.321-5.586,6.855c-2.614,1.513-5.697,1.999-8.65,1.364 c-0.972,2.885-2.956,5.32-5.585,6.855c-0.147,0.084-0.294,0.165-0.443,0.243l4.6,7.926c2.206,3.822,0.897,8.709-2.925,10.915 c-3.822,2.206-8.709,0.897-10.915-2.925l-4.578-7.928l-0.052,0.028c-1.344,0.77-2.824,1.272-4.358,1.479 C116.519,88.217,112.724,90.793,108.4,91.457z"/><path fill="#231f20" d="M112.3,105.714c-0.893,0-1.718-0.477-2.165-1.25L101.9,90.188c-0.69-1.196-0.281-2.725,0.915-3.415 c0.511-0.295,1.109-0.4,1.69-0.296c3.948,0.706,7.918-1.124,9.946-4.585l0,0c0.775-1.307,2.104-2.189,3.61-2.395 c0.921-0.127,1.808-0.433,2.611-0.9l0.1-0.054c1.123-0.64,2.453-0.809,3.7-0.469c1.248,0.329,2.313,1.145,2.954,2.265l4.636,8.028 c0.287,0.498,0.713,0.901,1.225,1.162c1.23,0.628,1.718,2.134,1.09,3.363c-0.22,0.43-0.559,0.787-0.977,1.029l-19.84,11.455 C113.177,105.598,112.743,105.715,112.3,105.714z M108.4,91.456l4.816,8.343l14.759-8.521c-0.088-0.133-0.172-0.269-0.252-0.408 l-4.577-7.927l-0.052,0.028c-1.342,0.769-2.82,1.271-4.352,1.478c-2.22,3.77-6.017,6.343-10.342,7.008V91.456z"/><path fill="#231f20" d="M140.125,89.652c-1.381,0.002-2.501-1.116-2.503-2.497c0-0.044,0.001-0.088,0.003-0.131 c0.03-0.575-0.107-1.146-0.394-1.645l-4.631-8.027c-0.675-1.174-0.84-2.573-0.456-3.871c0.369-1.268,1.248-2.325,2.427-2.919h0.006 c0.11-0.056,0.22-0.114,0.328-0.177c1.544-0.892,2.702-2.325,3.25-4.021c0.816-2.459,3.343-3.918,5.881-3.395 c3.61,0.772,7.218-1.312,8.355-4.824c0.817-2.458,3.343-3.919,5.881-3.4c3.482,0.745,6.986-1.168,8.243-4.5 c0.78-2.143,2.885-3.509,5.159-3.349c3.326,0.215,6.433-1.668,7.781-4.716c0.381-0.861,1.213-1.435,2.153-1.485 c0.942-0.06,1.836,0.424,2.3,1.246l8.632,14.952c0.69,1.196,0.281,2.725-0.915,3.415l-50.25,29.009 C140.995,89.536,140.564,89.652,140.125,89.652z M136.963,74.952l4.6,7.926c0.08,0.139,0.156,0.279,0.227,0.422l45.166-26.076 l-5.39-9.335c-2.651,2.779-6.397,4.241-10.229,3.991c-0.069,0.004-0.128,0.053-0.145,0.12c-2.124,5.652-8.064,8.898-13.968,7.634 c-0.971,2.886-2.956,5.321-5.586,6.855c-2.614,1.513-5.697,1.999-8.65,1.364c-0.972,2.885-2.956,5.32-5.585,6.855 c-0.144,0.086-0.291,0.168-0.44,0.247V74.952z"/><path fill="#231f20" d="M221.741,162.33c-3.08-0.001-5.927-1.643-7.47-4.309l-38.725-67.073c-2.378-4.118-0.967-9.384,3.152-11.761 c4.118-2.378,9.384-0.967,11.761,3.151l38.725,67.074c2.378,4.117,0.967,9.383-3.15,11.76c0,0-0.001,0-0.001,0.001l0,0 C224.729,161.93,223.249,162.329,221.741,162.33z M183,83.031c-1.995,0.006-3.608,1.628-3.603,3.623 c0.002,0.63,0.168,1.248,0.483,1.794l38.72,67.073c0.996,1.726,3.202,2.318,4.928,1.323c0.001-0.001,0.002-0.001,0.003-0.002l0,0 c1.726-0.996,2.318-3.203,1.322-4.93c0,0,0-0.001-0.001-0.001l-38.724-67.074C185.481,83.721,184.29,83.033,183,83.031z"/><path fill="#231f20" d="M200.576,174.549c-3.08-0.001-5.927-1.643-7.47-4.309l-38.725-67.073c-2.378-4.118-0.967-9.384,3.152-11.761 c4.118-2.378,9.384-0.967,11.761,3.151l38.725,67.074c2.378,4.117,0.967,9.383-3.15,11.76c0,0-0.001,0-0.001,0.001l0,0 C203.564,174.149,202.084,174.548,200.576,174.549z M161.831,95.249c-1.995,0.006-3.608,1.628-3.603,3.623 c0.002,0.63,0.168,1.248,0.483,1.794l38.725,67.073c0.996,1.726,3.202,2.318,4.928,1.323c0.001-0.001,0.002-0.001,0.003-0.002l0,0 c1.726-0.996,2.318-3.203,1.322-4.93c0,0,0-0.001-0.001-0.001l-38.725-67.072c-0.647-1.117-1.841-1.806-3.132-1.807L161.831,95.249 z"/><path fill="#231f20" d="M179.411,186.769c-3.08-0.001-5.927-1.643-7.47-4.309l-38.725-67.073c-2.378-4.118-0.967-9.384,3.152-11.761 c4.118-2.378,9.384-0.967,11.761,3.151l38.725,67.074c2.376,4.123,0.96,9.391-3.163,11.767 C182.389,186.368,180.914,186.765,179.411,186.769L179.411,186.769z M140.666,107.469c-1.995,0.006-3.608,1.628-3.603,3.623 c0.002,0.63,0.168,1.248,0.483,1.794l38.725,67.073c0.996,1.726,3.202,2.318,4.928,1.323c0.001-0.001,0.002-0.001,0.003-0.002l0,0 c1.726-0.997,2.318-3.205,1.321-4.931L143.8,109.277c-0.647-1.117-1.841-1.806-3.132-1.807L140.666,107.469z"/></svg>